<svg width="100" height="100" viewBox="0 0 100 100" fill="none" xmlns="http://www.w3.org/2000/svg">
<g clip-path="url(#clip0_1_8)">
<rect width="100" height="100" rx="50" fill="#EBEDF2"/>
<path d="M50 60.4167C21.8324 60.4167 10.4167 86.5789 10.4167 86.5789C10.4167 86.5789 24.3957 108.333 50 108.333C75.6043 108.333 89.5833 86.5789 89.5833 86.5789C89.5833 86.5789 78.1676 60.4167 50 60.4167Z" fill="#B5BDCF"/>
<path d="M48.9583 52.0833C58.7384 52.0833 66.6667 44.155 66.6667 34.375C66.6667 24.595 58.7384 16.6667 48.9583 16.6667C39.1783 16.6667 31.25 24.595 31.25 34.375C31.25 44.155 39.1783 52.0833 48.9583 52.0833Z" fill="#B5BDCF"/>
</g>
<defs>
<clipPath id="clip0_1_8">
<rect width="100" height="100" rx="50" fill="white"/>
</clipPath>
</defs>
</svg>
